HIERARCHY
ROOT Hips
{
	OFFSET 0.00000 0.00000 0.00000
	CHANNELS 6 Xposition Yposition Zposition Zrotation Yrotation Xrotation 
	JOINT LHipJoint
	{
		OFFSET 0 0 0
		CHANNELS 3 Zrotation Yrotation Xrotation
		JOINT LeftUpLeg
		{
			OFFSET 1.64549 -1.70879 0.84566
			CHANNELS 3 Zrotation Yrotation Xrotation
			JOINT LeftLeg
			{
				OFFSET 2.24963 -6.18082 0.00000
				CHANNELS 3 Zrotation Yrotation Xrotation
				JOINT LeftFoot
				{
					OFFSET 2.71775 -7.46697 0.00000
					CHANNELS 3 Zrotation Yrotation Xrotation
					JOINT LeftToeBase
					{
						OFFSET 0.18768 -0.51564 2.24737
						CHANNELS 3 Zrotation Yrotation Xrotation
						End Site
						{
							OFFSET 0.00000 -0.00000 1.15935
						}
					}
				}
			}
		}
	}
	JOINT RHipJoint
	{
		OFFSET 0 0 0
		CHANNELS 3 Zrotation Yrotation Xrotation
		JOINT RightUpLeg
		{
			OFFSET -1.58830 -1.70879 0.84566
			CHANNELS 3 Zrotation Yrotation Xrotation
			JOINT RightLeg
			{
				OFFSET -2.25006 -6.18201 0.00000
				CHANNELS 3 Zrotation Yrotation Xrotation
				JOINT RightFoot
				{
					OFFSET -2.72829 -7.49593 0.00000
					CHANNELS 3 Zrotation Yrotation Xrotation
					JOINT RightToeBase
					{
						OFFSET -0.21541 -0.59185 2.10643
						CHANNELS 3 Zrotation Yrotation Xrotation
						End Site
						{
							OFFSET -0.00000 -0.00000 1.09838
						}
					}
				}
			}
		}
	}
	JOINT LowerBack
	{
		OFFSET 0 0 0
		CHANNELS 3 Zrotation Yrotation Xrotation
		JOINT Spine
		{
			OFFSET 0.03142 2.10496 -0.11038
			CHANNELS 3 Zrotation Yrotation Xrotation
			JOINT Spine1
			{
				OFFSET -0.01863 2.10897 -0.06956
				CHANNELS 3 Zrotation Yrotation Xrotation
				JOINT Neck
				{
					OFFSET 0 0 0
					CHANNELS 3 Zrotation Yrotation Xrotation
					JOINT Neck1
					{
						OFFSET -0.02267 1.73238 0.00451
						CHANNELS 3 Zrotation Yrotation Xrotation
						JOINT Head
						{
							OFFSET -0.05808 1.54724 -0.61749
							CHANNELS 3 Zrotation Yrotation Xrotation
							End Site
							{
								OFFSET -0.01396 1.71468 -0.21082
							}
						}
					}
				}
				JOINT LeftShoulder
				{
					OFFSET 0 0 0
					CHANNELS 3 Zrotation Yrotation Xrotation
					JOINT LeftArm
					{
						OFFSET 3.44898 0.50298 0.21920
						CHANNELS 3 Zrotation Yrotation Xrotation
						JOINT LeftForeArm
						{
							OFFSET 5.41917 -0.00000 -0.00000
							CHANNELS 3 Zrotation Yrotation Xrotation
							JOINT LeftHand
							{
								OFFSET 2.44373 -0.00000 0.00000
								CHANNELS 3 Zrotation Yrotation Xrotation
								JOINT LeftFingerBase
								{
									OFFSET 0 0 0
									CHANNELS 3 Zrotation Yrotation Xrotation
									JOINT LeftHandIndex1
									{
										OFFSET 0.72750 -0.00000 0.00000
										CHANNELS 3 Zrotation Yrotation Xrotation
										End Site
										{
											OFFSET 0.58653 -0.00000 0.00000
										}
									}
								}
								JOINT LThumb
								{
									OFFSET 0 0 0
									CHANNELS 3 Zrotation Yrotation Xrotation
									End Site
									{
										OFFSET 0.59549 -0.00000 0.59549
									}
								}
							}
						}
					}
				}
				JOINT RightShoulder
				{
					OFFSET 0 0 0
					CHANNELS 3 Zrotation Yrotation Xrotation
					JOINT RightArm
					{
						OFFSET -3.23015 0.55830 0.31051
						CHANNELS 3 Zrotation Yrotation Xrotation
						JOINT RightForeArm
						{
							OFFSET -5.58976 -0.00010 0.00014
							CHANNELS 3 Zrotation Yrotation Xrotation
							JOINT RightHand
							{
								OFFSET -2.48060 -0.00000 0.00000
								CHANNELS 3 Zrotation Yrotation Xrotation
								JOINT RightFingerBase
								{
									OFFSET 0 0 0
									CHANNELS 3 Zrotation Yrotation Xrotation
									JOINT RightHandIndex1
									{
										OFFSET -0.81601 -0.00000 0.00000
										CHANNELS 3 Zrotation Yrotation Xrotation
										End Site
										{
											OFFSET -0.65789 -0.00000 0.00000
										}
									}
								}
								JOINT RThumb
								{
									OFFSET 0 0 0
									CHANNELS 3 Zrotation Yrotation Xrotation
									End Site
									{
										OFFSET -0.66793 -0.00000 0.66793
									}
								}
							}
						}
					}
				}
			}
		}
	}
}
MOTION
Frames: 8
Frame Time: .0083333
-0.4459 16.5664 -0.621 0 0 0 0 0 0 -21 0 0 0 0 0 0 0 0 0 0 0 0 0 0 21 0 0 0 0 0 0 0 0 0 0 0 0 0 0 0 0 0 0 0 0 0 0 -16 0 0 21 0 0 11 0 0 0 -8 0 0 0 0 0 0 0 0 0 0 0 0 0 0 0 0 0 0 0 0 8 0 0 0 0 0 0 0 0 0 0 0 0 0 0 0 0 0
-0.4459 16.5664 -0.6210 176.9590 -6.5957 -162.7740 0.0000 0.0000 0.0000 -30.5562 -11.6512 -20.3193 2.7992 10.3626 30.1591 3.3116 9.8873 -38.8150 0.4132 -4.1264 -11.4325 0.0000 0.0000 0.0000 11.8184 19.7904 -58.7766 -5.2531 -13.6633 41.9051 -2.2448 -21.1566 -42.0022 -8.4195 -16.4193 54.0599 -4.0204 -2.0956 -4.2885 0.0703 -2.6433 -0.7103 2.1665 -1.3596 1.8561 -0.6533 2.4336 -14.0904 1.5668 -2.1700 40.4448 -0.0647 -2.3820 17.1622 -0.0000 -0.0000 0.0000 -86.6331 12.4208 15.9728 10.4590 -17.4544 -1.6099 -0.0000 -0.0000 3.2588 19.3097 20.6224 7.0352 -7.1250 0.0000 -0.0000 -9.3690 51.4822 -1.5069 -0.0000 -0.0000 0.0000 85.8422 -12.7129 33.7276 -8.6776 14.6452 -1.1172 0.0000 -0.0000 -5.5474 -9.1360 16.5858 -2.6284 7.1250 -0.0000 -0.0000 12.4052 -13.4712 9.4017
-0.4437 16.5561 -0.6705 176.7690 -6.9246 -162.6900 0.0000 0.0000 0.0000 -30.7012 -11.6645 -20.1426 2.7934 10.3528 30.1269 3.2809 9.9603 -38.7069 0.4761 -4.4249 -12.2753 0.0000 0.0000 0.0000 11.9763 19.5849 -58.5300 -5.2770 -13.6891 42.0060 -2.6960 -19.9775 -42.9523 -8.7124 -16.6191 55.0903 -4.0165 -2.2116 -4.3380 0.0049 -2.8019 -0.8168 2.0872 -1.4378 1.7812 -0.5247 2.4639 -13.9230 1.4443 -2.1471 40.4650 -0.1404 -2.3816 17.1274 -0.0000 0.0000 0.0000 -86.3016 12.4975 17.7913 10.1033 -16.9010 -1.5048 -0.0000 -0.0000 3.5968 18.4766 20.6654 6.7254 -7.1250 0.0000 -0.0000 -10.2035 51.3847 -1.6188 -0.0000 0.0000 0.0000 85.7775 -12.9094 34.7262 -8.9184 15.0303 -1.1789 0.0000 -0.0000 -6.6329 -8.5237 16.1810 -2.3916 7.1250 -0.0000 -0.0000 12.8189 -13.9120 9.6091
-0.4382 16.5414 -0.7263 176.7490 -7.2131 -162.4920 0.0000 0.0000 0.0000 -30.6249 -11.7272 -20.1630 2.8025 10.3683 30.1778 3.2435 10.0930 -38.6004 0.5412 -4.7133 -13.0925 0.0000 0.0000 0.0000 12.0464 19.7799 -58.2726 -5.2751 -13.6870 41.9979 -3.0115 -19.2686 -43.7239 -8.5054 -16.4787 54.3633 -3.9358 -2.2864 -4.6368 -0.0065 -2.8977 -0.8955 2.0137 -1.4874 1.8690 -0.4189 2.4603 -13.8748 1.3980 -2.1969 40.5156 -0.1917 -2.3993 17.1436 -0.0000 0.0000 0.0000 -85.9272 12.6473 19.8066 9.9044 -16.5899 -1.4475 -0.0000 -0.0000 3.9880 17.3290 20.9300 6.3601 -7.1250 0.0000 -0.0000 -11.4254 51.4589 -1.8377 -0.0000 0.0000 0.0000 85.7403 -12.9914 35.5884 -9.0666 15.2666 -1.2176 0.0000 -0.0000 -7.4226 -8.0349 15.8638 -2.2098 7.1250 -0.0000 -0.0000 13.1515 -14.2555 9.7738
-0.4370 16.5267 -0.7938 176.7150 -7.0427 -162.3870 0.0000 0.0000 0.0000 -30.6929 -11.5463 -20.0844 2.8061 10.3743 30.1976 3.3246 10.0045 -38.9428 0.5600 -4.7933 -13.3199 0.0000 0.0000 0.0000 12.1904 20.1046 -57.9467 -5.2785 -13.6907 42.0124 -2.8154 -20.0922 -43.5505 -8.3211 -16.3504 53.7111 -3.9134 -2.2347 -4.9921 -0.0649 -2.8199 -0.9615 1.9338 -1.4519 1.9902 -0.4244 2.4579 -13.7143 1.4183 -2.2272 40.4948 -0.1869 -2.4188 17.0916 -0.0000 -0.0000 0.0000 -85.6187 13.0221 21.8948 9.8634 -16.5256 -1.4359 -0.0000 -0.0000 4.5039 16.4545 20.7253 5.9669 -7.1250 0.0000 -0.0000 -12.2001 51.1077 -1.8592 -0.0000 -0.0000 0.0000 85.6932 -13.1004 36.5064 -9.1665 15.4255 -1.2440 0.0000 -0.0000 -8.0909 -7.9083 15.3764 -2.1094 7.1250 -0.0000 -0.0000 13.2519 -14.7412 9.7114
-0.4339 16.5129 -0.8535 176.5640 -7.0047 -162.0250 0.0000 0.0000 0.0000 -30.8037 -11.5070 -20.2844 2.8108 10.3824 30.2240 3.3424 10.0203 -39.0371 0.5672 -4.8236 -13.4062 0.0000 0.0000 0.0000 12.3669 20.0656 -57.9840 -5.2729 -13.6846 41.9886 -2.4966 -21.0549 -43.0013 -8.0894 -16.1846 52.8840 -3.9873 -2.2847 -5.4342 -0.0930 -2.8778 -1.1511 1.9284 -1.4845 2.0472 -0.6204 2.4875 -13.5098 1.4996 -2.1754 40.4629 -0.1056 -2.4295 17.0215 0.0000 0.0000 0.0000 -85.3798 13.4706 24.0696 9.8185 -16.4552 -1.4231 -0.0000 -0.0000 5.1004 15.6730 20.1138 5.5112 -7.1250 0.0000 -0.0000 -12.7237 50.3705 -1.7082 0.0000 0.0000 0.0000 85.5536 -13.3146 37.3191 -9.3968 15.7905 -1.3060 0.0000 -0.0000 -8.6903 -7.6259 14.9578 -1.9792 7.1250 -0.0000 -0.0000 13.4557 -15.1682 9.7428
-0.4396 16.4987 -0.9245 176.3880 -7.1468 -161.6680 0.0000 0.0000 0.0000 -30.9544 -11.5875 -20.3630 2.8223 10.4016 30.2873 3.3541 9.9631 -39.0614 0.6004 -4.9601 -13.7948 0.0000 0.0000 0.0000 12.4297 19.8276 -57.9919 -5.2543 -13.6646 41.9103 -2.3936 -21.2950 -42.7686 -8.0660 -16.1676 52.8002 -3.9606 -2.3947 -6.0871 -0.1263 -3.0052 -1.2124 1.8426 -1.5558 2.3530 -0.8667 2.5266 -13.6472 1.6601 -2.1440 40.6123 0.0100 -2.4422 17.1427 -0.0000 -0.0000 0.0000 -85.0598 13.7931 26.8176 9.7465 -16.3421 -1.4028 -0.0000 -0.0000 5.2949 14.9577 19.6497 5.1335 -7.1250 0.0000 -0.0000 -13.2347 49.7969 -1.5898 -0.0000 -0.0000 0.0000 85.4786 -13.3376 37.6410 -9.5036 15.9593 -1.3352 0.0000 -0.0000 -8.6284 -7.2884 15.0289 -1.8995 7.1250 -0.0000 -0.0000 13.6778 -15.1179 9.9286
-0.4352 16.4849 -0.9980 176.2010 -7.2913 -161.4930 0.0000 0.0000 0.0000 -31.1013 -11.4682 -20.3165 2.8391 10.4299 30.3803 3.3511 9.7780 -38.9446 0.6316 -5.0851 -14.1516 0.0000 0.0000 0.0000 12.1237 20.3098 -57.6812 -5.2221 -13.6296 41.7736 -2.4324 -21.9238 -43.4819 -8.0587 -16.1623 52.7740 -4.1289 -2.5103 -6.6353 -0.1439 -3.1248 -1.1738 1.8819 -1.6250 2.7139 -1.0362 2.5522 -13.7287 1.8200 -2.1544 40.7214 0.1062 -2.4593 17.2286 0.0000 0.0000 0.0000 -84.7192 14.0645 29.4562 9.6659 -16.2153 -1.3802 -0.0000 -0.0000 5.5986 14.4687 18.7878 4.7506 -7.1250 0.0000 -0.0000 -13.3843 48.8680 -1.2981 0.0000 0.0000 0.0000 85.3751 -13.2315 38.3731 -9.5574 16.0443 -1.3500 0.0000 -0.0000 -8.9698 -6.9930 15.0527 -1.8246 7.1250 -0.0000 -0.0000 13.8736 -15.1114 10.0816
